<?xml version="1.0" standalone="no"?>
<!DOCTYPE svg PUBLIC "-//W3C//DTD SVG 20010904//EN"
 "http://www.w3.org/TR/2001/REC-SVG-20010904/DTD/svg10.dtd">
<svg version="1.0" xmlns="http://www.w3.org/2000/svg"
 width="1101.000000pt" height="1101.000000pt" viewBox="0 0 1101.000000 1101.000000"
 preserveAspectRatio="xMidYMid meet">
<metadata>
Created by potrace 1.14, written by Peter Selinger 2001-2017
</metadata>
<g transform="translate(0.000000,1101.000000) scale(0.100000,-0.100000)"
fill="#000000" stroke="none">
<path d="M3545 8770 c-11 -4 -55 -11 -98 -15 -43 -3 -88 -8 -100 -10 -12 -3
-38 -6 -57 -9 -83 -11 -303 -59 -395 -87 -128 -39 -262 -88 -385 -140 -81 -35
-343 -169 -361 -185 -8 -8 -21 -14 -27 -14 -7 0 -12 -4 -12 -10 0 -5 -5 -10
-11 -10 -12 0 -132 -81 -137 -92 -2 -5 -8 -8 -13 -8 -16 0 -120 -78 -190 -142
-10 -10 -21 -18 -22 -18 -23 0 -417 -397 -417 -420 0 -4 -7 -11 -16 -14 -9 -4
-14 -9 -11 -12 3 -3 -7 -19 -23 -34 -16 -15 -26 -31 -23 -34 4 -3 1 -6 -5 -6
-7 0 -12 -7 -12 -15 0 -8 -4 -15 -8 -15 -9 0 -72 -86 -72 -99 0 -5 -7 -12 -16
-15 -9 -4 -14 -9 -11 -12 3 -4 -3 -15 -13 -26 -10 -11 -25 -32 -32 -47 -27
-53 -102 -176 -111 -182 -5 -4 -6 -12 -3 -18 4 -6 2 -11 -3 -11 -6 0 -11 -6
-11 -14 0 -8 -6 -21 -13 -28 -7 -7 -15 -17 -16 -23 -2 -5 -17 -39 -34 -75 -17
-36 -30 -68 -29 -72 1 -5 -2 -8 -6 -8 -4 0 -8 -10 -9 -22 -1 -11 -7 -24 -14
-28 -6 -4 -8 -13 -5 -19 4 -6 3 -11 -2 -11 -10 0 -25 -37 -23 -57 1 -6 -3 -14
-8 -18 -6 -3 -8 -12 -4 -20 3 -8 1 -15 -4 -15 -6 0 -20 -35 -33 -77 -12 -43
-26 -82 -30 -88 -4 -5 -6 -20 -5 -32 1 -12 -2 -20 -6 -18 -4 3 -12 -21 -18
-53 -6 -31 -18 -86 -27 -122 -8 -36 -17 -74 -18 -85 -2 -11 -6 -31 -9 -45 -15
-59 -22 -113 -32 -245 -3 -44 -8 -86 -10 -94 -8 -21 -7 -424 0 -443 4 -10 9
-50 11 -90 7 -126 9 -148 15 -148 3 0 7 -26 8 -57 1 -31 4 -60 7 -65 3 -4 7
-17 10 -28 2 -11 6 -29 8 -39 3 -11 8 -40 11 -65 4 -25 10 -44 14 -42 3 2 7
-14 8 -35 2 -22 7 -48 13 -59 6 -10 11 -30 12 -44 1 -15 6 -26 10 -26 4 0 7
-3 6 -7 -2 -12 14 -67 23 -78 4 -5 8 -13 8 -17 1 -5 1 -9 2 -10 0 -2 2 -13 5
-25 2 -12 15 -47 29 -79 14 -31 25 -60 25 -65 0 -4 17 -43 37 -86 21 -43 37
-84 36 -90 0 -7 3 -13 8 -13 5 0 9 -7 9 -15 0 -8 5 -15 11 -15 5 0 7 -4 4 -10
-3 -5 -1 -10 4 -10 6 0 10 -3 9 -7 -2 -13 20 -61 32 -68 5 -3 8 -11 5 -16 -4
-5 -1 -9 4 -9 6 0 11 -9 11 -19 0 -11 3 -21 8 -23 10 -4 73 -111 72 -122 -1
-5 2 -12 7 -15 5 -3 34 -42 63 -86 30 -44 57 -82 60 -85 3 -3 25 -32 49 -65
24 -33 52 -69 62 -80 10 -11 34 -37 53 -57 19 -21 32 -38 29 -38 -6 0 257
-261 302 -300 17 -14 75 -61 130 -105 55 -44 101 -83 103 -87 2 -5 11 -8 21
-8 16 0 17 33 16 528 0 290 -3 534 -6 542 -2 8 -8 19 -14 25 -5 7 -23 29 -40
50 -16 21 -36 44 -42 51 -7 7 -13 17 -13 22 0 6 -4 12 -8 14 -13 4 -122 172
-157 240 -17 32 -34 58 -38 58 -5 0 -5 5 -1 11 3 6 3 14 -2 18 -5 3 -20 31
-34 61 -14 30 -27 57 -30 60 -3 3 -6 10 -7 15 -1 6 -16 48 -34 95 -32 89 -68
201 -74 235 -2 11 -9 43 -15 70 -7 28 -14 61 -16 75 -2 14 -8 50 -14 80 -6 30
-11 82 -12 115 0 33 -4 65 -8 70 -9 12 -8 366 1 380 3 6 7 39 8 75 2 35 5 69
9 74 3 6 5 27 3 48 -1 21 2 38 7 38 5 0 8 14 7 30 -1 17 1 33 6 36 5 3 9 18 9
33 0 15 3 31 6 34 4 4 8 19 10 34 4 32 8 52 17 73 4 8 8 24 10 35 2 11 8 30
15 42 7 12 12 26 12 32 0 5 5 22 11 38 6 15 10 29 10 31 -1 1 5 15 13 31 9 16
12 31 9 35 -4 3 -2 6 4 6 6 0 14 10 18 23 14 42 16 52 17 64 1 7 7 14 15 17 7
3 13 12 13 20 0 14 29 76 41 86 5 5 11 19 20 45 1 6 11 19 21 29 10 11 18 24
18 29 0 8 109 173 138 207 6 8 28 34 47 56 19 23 35 44 35 47 0 3 15 21 33 39
17 19 53 57 78 84 59 62 183 174 215 194 13 8 24 21 24 29 0 8 3 12 6 8 6 -5
45 20 91 58 31 26 40 32 76 54 20 12 37 26 37 30 0 4 6 8 13 8 6 0 47 21 90
46 43 26 81 47 84 47 3 0 17 9 32 19 15 11 39 23 54 26 l27 7 0 -2613 c0
-2101 2 -2615 12 -2625 15 -15 228 -73 366 -100 62 -12 80 -15 117 -20 22 -3
45 -7 52 -9 7 -2 52 -7 100 -10 48 -4 102 -8 120 -9 18 -2 34 2 36 8 2 6 3
1263 3 2793 -1 1852 2 2784 9 2786 9 3 191 5 635 7 102 0 194 1 206 0 l21 0
-1 -537 c0 -357 -4 -540 -11 -545 -6 -5 -7 -8 0 -8 12 0 14 -229 2 -247 -4 -6
-4 -14 1 -16 9 -6 9 -148 -1 -163 -3 -6 -3 -14 1 -18 11 -11 9 -146 -3 -146
-7 0 -7 -3 0 -8 12 -8 13 -61 2 -79 -4 -6 -4 -14 1 -17 10 -6 9 -66 -1 -83 -4
-6 -3 -14 1 -17 10 -6 10 -46 -1 -62 -3 -6 -3 -14 1 -18 11 -11 9 -50 -3 -58
-7 -5 -7 -8 0 -8 11 0 13 -79 2 -96 -3 -6 -3 -14 0 -18 11 -11 10 -66 0 -66
-5 0 -3 -7 4 -17 16 -19 16 -23 -3 -34 -7 -5 -8 -9 -3 -9 12 0 14 -98 3 -116
-4 -6 -4 -14 0 -18 12 -12 9 -606 -3 -606 -7 0 -7 -3 0 -8 14 -10 14 -152 1
-152 -8 0 -8 -3 -1 -8 6 -4 11 -29 11 -57 0 -27 -5 -53 -11 -57 -7 -5 -6 -8 1
-8 12 0 12 -49 0 -68 -3 -6 -2 -13 3 -16 9 -6 8 -57 -3 -74 -3 -6 -2 -13 3
-17 9 -5 9 -12 1 -50 -1 -5 -1 -12 0 -15 7 -19 5 -70 -4 -70 -7 0 -8 -3 -1 -8
12 -8 13 -72 2 -89 -4 -6 -4 -14 1 -17 10 -6 10 -66 -1 -82 -3 -6 -3 -14 1
-18 11 -12 9 -136 -3 -136 -7 0 -7 -3 0 -8 14 -9 14 -112 0 -112 -7 0 -7 -3 0
-8 14 -9 14 -105 0 -114 -7 -5 -7 -8 0 -8 15 0 15 -960 0 -960 -7 0 -7 -3 0
-8 14 -9 14 -65 0 -74 -6 -5 -6 -8 2 -8 9 0 10 -7 3 -25 -7 -17 -6 -25 1 -25
8 0 7 -5 -1 -15 -9 -11 -9 -15 -1 -15 7 0 9 -5 4 -12 -12 -21 -12 -38 0 -38 8
0 8 -3 2 -8 -5 -4 -11 -48 -12 -99 -2 -84 0 -93 18 -98 32 -10 781 -7 791 3 6
6 9 708 8 1793 -1 2132 -2 2330 -14 2348 -6 9 -5 12 0 8 6 -3 10 79 10 218 0
135 -4 221 -10 218 -5 -4 -6 0 0 8 11 19 13 189 1 182 -5 -3 -4 4 2 16 9 16 9
21 -1 21 -8 0 -9 3 -3 8 9 6 14 248 6 277 -2 6 -2 12 -1 15 8 17 5 137 -4 149
-7 9 -7 13 -1 9 11 -7 12 67 15 806 0 224 -3 311 -11 317 -14 8 -1682 4 -1697
-5 -5 -3 -12 -2 -14 3 -1 5 -12 5 -23 1z"/>
<path d="M5756 8759 c-12 -17 -13 -215 -2 -246 3 -7 1 -13 -4 -13 -5 0 -7 -6
-5 -12 9 -23 11 -108 2 -108 -4 0 -3 -9 3 -20 8 -15 8 -20 -2 -20 -8 0 -9 -3
-3 -8 13 -9 15 -52 3 -52 -5 0 -6 -5 -2 -12 11 -17 10 -78 -1 -78 -7 0 -7 -3
0 -8 6 -4 10 -221 10 -615 0 -398 -3 -607 -10 -607 -7 0 -7 -3 0 -8 6 -4 10
-16 10 -27 0 -11 -4 -23 -10 -27 -6 -5 -5 -8 2 -8 9 0 10 -7 3 -24 -5 -13 -6
-27 -3 -30 10 -9 9 -346 0 -346 -5 0 -5 -5 -1 -11 8 -13 11 -119 4 -119 -3 0
-3 -31 0 -70 3 -42 1 -72 -5 -75 -6 -3 -5 -7 3 -11 10 -5 10 -9 1 -20 -9 -11
-8 -14 2 -14 11 0 11 -3 -1 -11 -11 -8 -12 -12 -2 -16 6 -2 9 -10 5 -16 -10
-17 -11 -47 -1 -47 5 0 6 -5 2 -11 -10 -16 -11 -189 -1 -189 5 0 5 -5 1 -12
-9 -15 -10 -58 -1 -80 3 -9 1 -19 -6 -22 -9 -3 -8 -5 1 -5 7 -1 10 -6 6 -12
-10 -17 -10 -229 0 -229 5 0 3 -7 -4 -15 -10 -12 -10 -15 1 -15 11 0 11 -2 0
-9 -12 -8 -12 -12 -2 -25 11 -13 11 -16 0 -16 -12 0 -12 -2 0 -9 11 -7 11 -9
0 -14 -12 -5 -12 -7 0 -15 8 -6 9 -12 3 -16 -7 -4 -7 -17 -2 -36 5 -17 5 -30
1 -30 -4 0 -4 -27 -1 -60 3 -33 2 -60 -2 -60 -4 0 -3 -11 2 -25 6 -17 6 -25
-1 -25 -6 0 -7 -5 -4 -10 11 -18 11 -200 0 -205 -6 -3 -5 -7 3 -11 10 -5 10
-9 1 -20 -9 -11 -8 -14 2 -14 11 0 11 -3 -1 -11 -12 -8 -12 -12 -2 -16 10 -4
10 -8 1 -19 -9 -11 -8 -14 2 -14 11 0 11 -3 -1 -11 -11 -8 -12 -12 -2 -16 6
-2 9 -10 5 -16 -10 -17 -11 -47 -1 -47 5 0 6 -6 2 -12 -11 -18 -12 -48 -2 -48
5 0 6 -5 2 -12 -11 -17 -11 -708 0 -708 5 0 3 -7 -4 -15 -10 -12 -10 -15 1
-15 11 0 11 -3 -1 -11 -12 -8 -12 -12 -2 -16 10 -4 10 -8 1 -19 -9 -11 -8 -14
2 -14 11 0 11 -3 -1 -11 -12 -8 -12 -12 -2 -16 10 -4 10 -8 1 -19 -9 -11 -8
-14 2 -14 11 0 11 -3 -1 -11 -12 -8 -12 -12 -2 -16 10 -4 10 -8 1 -19 -9 -11
-8 -14 2 -14 11 0 11 -3 -1 -11 -12 -8 -12 -12 -2 -16 10 -4 10 -8 1 -19 -9
-11 -8 -14 2 -14 11 0 11 -2 0 -9 -12 -8 -12 -12 -2 -25 11 -12 11 -16 1 -16
-9 0 -9 -4 1 -17 10 -11 10 -14 2 -9 -16 9 -17 -6 -1 -22 7 -7 8 -12 2 -12 -9
0 -10 -71 0 -96 3 -7 2 -15 -2 -18 -4 -2 -5 -43 -2 -91 3 -48 2 -89 -2 -91 -3
-2 -3 -18 2 -34 5 -17 5 -30 0 -30 -5 0 -5 -13 0 -30 5 -16 6 -30 2 -30 -8 0
-6 -174 2 -196 3 -8 0 -14 -6 -14 -7 0 -6 -5 2 -15 10 -12 10 -15 -1 -15 -12
0 -12 -2 0 -9 11 -7 11 -10 0 -15 -11 -5 -11 -7 -1 -12 10 -5 10 -9 1 -20 -9
-11 -8 -14 2 -14 11 0 11 -2 0 -9 -12 -8 -12 -12 -2 -25 8 -9 10 -16 5 -16
-14 0 -11 -407 3 -421 11 -11 755 -16 791 -5 16 5 17 81 15 1383 -2 758 -3
1385 -3 1393 0 8 1 79 2 158 2 78 -1 142 -5 142 -5 0 -5 5 -1 12 11 18 11 241
1 256 -6 7 -5 12 2 12 7 0 8 8 2 23 -5 12 -5 31 -1 42 4 11 3 28 -2 38 -6 12
-5 17 4 17 9 0 9 3 1 11 -8 8 -8 20 -3 35 6 15 6 24 0 24 -6 0 -6 9 -1 23 5
13 5 30 1 37 -5 9 -4 20 2 27 6 8 6 13 1 13 -11 0 -11 29 1 48 4 7 2 12 -4 12
-8 0 -8 6 0 20 6 11 7 20 2 20 -4 0 -8 9 -8 20 0 11 5 20 11 20 6 0 7 3 0 8
-5 4 -10 14 -10 22 0 8 5 18 10 22 7 5 6 8 0 8 -6 0 -11 16 -11 35 0 19 5 35
11 35 7 0 7 3 0 8 -14 9 -14 75 -1 84 7 5 7 8 1 8 -7 0 -11 152 -13 435 -2
366 0 435 12 435 14 0 46 -41 46 -59 0 -5 23 -44 50 -85 28 -42 50 -78 50 -81
0 -7 39 -63 57 -82 6 -7 15 -22 18 -33 3 -11 11 -20 16 -20 5 0 9 -6 9 -13 0
-7 9 -23 20 -35 11 -12 20 -24 20 -27 0 -8 84 -130 92 -133 5 -2 5 -8 2 -13
-3 -6 4 -19 17 -30 12 -10 19 -19 15 -19 -4 0 2 -10 14 -22 11 -12 20 -27 20
-33 0 -7 9 -20 20 -30 11 -10 20 -22 20 -27 0 -4 35 -61 79 -126 43 -64 84
-128 91 -142 7 -14 16 -27 19 -30 4 -3 22 -30 41 -60 19 -30 38 -56 42 -58 5
-2 8 -8 8 -14 0 -5 10 -24 23 -41 25 -36 39 -59 63 -104 10 -18 21 -33 26 -33
4 0 8 -5 8 -10 0 -6 5 -16 10 -23 6 -7 33 -48 61 -92 29 -44 57 -83 63 -87 6
-4 8 -8 4 -8 -7 0 29 -59 52 -87 6 -7 15 -24 22 -38 6 -14 15 -25 20 -25 4 0
8 -5 8 -10 0 -6 17 -36 38 -68 21 -31 57 -86 80 -122 22 -36 45 -69 49 -75 5
-5 20 -29 33 -52 13 -24 27 -43 30 -43 3 0 12 -16 20 -35 7 -19 17 -32 22 -29
4 3 8 0 8 -6 0 -6 32 -59 70 -117 39 -58 70 -110 70 -115 0 -4 5 -8 10 -8 6 0
10 -7 10 -15 0 -8 4 -15 9 -15 5 0 13 -10 17 -22 3 -12 12 -28 18 -35 30 -34
36 -43 29 -43 -4 0 -3 -4 2 -8 17 -12 77 -102 68 -102 -4 0 -1 -5 7 -10 8 -5
15 -13 15 -17 0 -4 12 -24 28 -44 15 -20 27 -39 27 -42 0 -4 8 -16 18 -27 9
-11 17 -24 16 -28 0 -4 4 -11 8 -17 5 -5 17 -21 28 -34 11 -13 22 -32 25 -42
4 -11 11 -19 16 -19 5 0 9 -4 9 -10 0 -8 105 -176 128 -205 4 -5 19 -29 32
-52 13 -24 27 -43 32 -43 4 0 8 -4 8 -9 0 -4 20 -39 45 -77 50 -77 51 -79 100
-149 19 -27 40 -62 46 -77 6 -16 15 -28 20 -28 5 0 9 -5 9 -10 0 -12 41 -73
53 -78 4 -2 7 -8 7 -13 0 -8 186 -298 208 -324 5 -6 11 -15 13 -21 14 -34 87
-135 101 -139 12 -4 31 7 58 32 22 21 72 67 111 103 40 36 84 78 98 94 14 16
42 46 61 65 30 31 119 134 143 166 4 5 17 21 30 35 12 15 33 43 47 63 14 20
29 37 33 37 5 0 5 5 2 10 -3 6 1 13 9 16 9 3 16 12 16 20 0 8 5 14 11 14 5 0
7 5 4 10 -3 6 1 13 9 16 8 3 18 15 22 27 3 11 14 29 24 39 9 10 30 43 46 73
15 30 32 55 37 55 4 0 6 4 2 9 -3 5 -1 12 5 16 6 4 8 11 5 16 -4 5 -2 9 3 9 5
0 34 51 64 112 77 156 87 181 82 190 -3 4 -1 8 4 8 8 0 20 28 26 60 1 3 4 10
8 15 5 9 55 145 62 170 2 6 5 17 8 25 3 8 16 49 28 90 12 41 24 82 27 90 3 8
6 27 6 43 0 15 3 27 8 27 4 0 11 21 14 48 3 26 9 54 14 62 4 8 7 36 7 62 -1
25 2 44 6 41 5 -2 8 13 9 34 0 21 3 47 5 58 13 55 17 144 17 400 0 294 -3 349
-23 455 -7 36 -12 82 -13 103 0 20 -3 37 -7 37 -3 0 -7 14 -8 32 -2 17 -6 36
-11 42 -5 6 -7 20 -5 30 1 11 -2 29 -8 40 -6 11 -13 36 -15 55 -3 20 -9 41
-14 47 -5 6 -6 13 -3 16 3 3 -2 22 -10 42 -8 20 -13 36 -10 36 3 0 -1 10 -8
23 -7 12 -11 25 -10 29 1 4 -6 24 -15 45 -9 21 -16 44 -14 51 1 6 -4 12 -10
12 -7 0 -10 3 -6 6 3 4 0 19 -9 35 -8 16 -14 30 -13 31 1 3 -6 19 -36 93 -7
17 -16 40 -20 53 -3 12 -11 22 -17 22 -5 0 -8 7 -4 15 3 8 2 15 -3 15 -5 0
-12 11 -15 25 -3 13 -20 47 -36 75 -17 28 -30 55 -30 60 0 6 -4 10 -8 10 -5 0
-9 6 -9 13 0 6 -28 57 -62 112 -34 55 -68 109 -74 120 -7 11 -20 27 -29 36
-10 9 -15 18 -13 21 3 3 -1 11 -10 18 -8 7 -15 17 -15 22 0 5 -6 15 -12 22 -7
7 -24 28 -38 46 -14 18 -32 41 -40 51 -8 9 -26 32 -40 49 -99 126 -322 345
-471 462 -30 23 -56 45 -59 48 -16 16 -80 60 -89 60 -6 0 -11 3 -11 8 0 4 -25
23 -55 42 -30 19 -55 38 -55 43 0 4 -4 7 -10 7 -5 0 -33 15 -62 33 -128 78
-228 130 -236 122 -13 -12 -9 -909 3 -927 6 -10 29 -31 51 -48 111 -87 271
-239 344 -329 19 -23 50 -59 67 -79 18 -20 35 -45 39 -54 3 -10 10 -18 15 -18
6 0 15 -13 20 -29 6 -16 17 -32 25 -35 8 -3 14 -12 14 -20 0 -8 3 -16 8 -18 9
-4 112 -177 115 -192 1 -6 4 -13 7 -16 14 -14 80 -154 80 -170 0 -10 5 -20 10
-22 6 -2 12 -12 15 -23 2 -11 22 -71 44 -132 21 -62 38 -113 36 -113 -2 0 1
-15 6 -32 16 -53 20 -71 26 -113 3 -22 8 -42 12 -45 3 -3 7 -14 8 -25 1 -11 4
-30 7 -43 3 -12 6 -54 7 -93 1 -38 5 -71 8 -73 3 -2 6 -44 6 -93 0 -48 5 -91
10 -95 6 -5 5 -8 -3 -8 -10 0 -10 -5 -2 -20 6 -11 7 -20 3 -20 -5 0 -8 -37 -8
-82 0 -46 -3 -96 -7 -113 -7 -30 -18 -143 -20 -202 0 -18 -4 -33 -8 -33 -4 0
-7 -6 -8 -12 -2 -31 -16 -94 -25 -118 -10 -28 -21 -75 -20 -92 0 -10 -5 -18
-11 -18 -6 0 -4 -5 4 -10 9 -6 10 -10 3 -10 -12 0 -38 -64 -37 -92 1 -10 -3
-18 -7 -18 -5 0 -9 -6 -9 -12 0 -7 -11 -35 -25 -63 -13 -27 -25 -56 -25 -62 0
-7 -5 -13 -12 -13 -6 0 -9 -3 -5 -6 3 -3 -8 -36 -24 -72 -39 -86 -60 -102 -80
-59 -14 29 -39 73 -72 124 -15 24 -27 47 -27 53 0 5 -4 10 -10 10 -5 0 -10 7
-10 16 0 8 -4 13 -9 9 -5 -3 -13 5 -17 17 -3 12 -12 28 -18 35 -28 32 -34 41
-30 46 2 2 -2 10 -11 17 -8 7 -15 18 -15 25 0 7 -7 16 -16 19 -8 3 -13 10 -10
15 4 5 3 11 -1 13 -12 5 -53 66 -53 78 0 5 -4 10 -10 10 -5 0 -10 5 -10 11 0
6 -15 31 -32 57 -43 62 -56 83 -64 105 -3 9 -10 17 -15 17 -5 0 -14 11 -19 25
-5 14 -14 25 -20 25 -6 0 -9 4 -5 10 3 5 -2 17 -12 27 -10 10 -24 31 -32 46
-8 15 -18 27 -23 27 -5 0 -7 4 -3 9 3 5 -6 22 -19 36 -14 15 -31 40 -38 56 -7
16 -16 29 -20 29 -5 0 -8 4 -8 9 0 5 -25 45 -55 90 -30 45 -55 85 -55 90 0 5
-3 11 -7 13 -9 4 -53 65 -53 73 0 3 -18 30 -40 60 -22 30 -40 57 -40 59 0 5
-143 228 -175 273 -8 13 -15 25 -15 28 0 3 -5 12 -12 20 -29 32 -36 42 -42 63
-4 12 -12 22 -17 22 -5 0 -9 7 -9 15 0 9 -7 18 -15 21 -8 4 -15 11 -15 16 0 6
-13 30 -30 55 -16 24 -30 46 -30 49 0 3 -6 12 -12 19 -19 21 -32 38 -45 63 -7
12 -19 32 -25 44 -7 12 -23 33 -35 47 -13 14 -23 31 -23 37 0 6 -7 17 -15 24
-8 7 -13 15 -10 19 2 4 -5 14 -16 21 -10 8 -19 20 -19 27 0 7 -5 13 -11 13 -5
0 -7 5 -4 10 3 6 3 10 -2 10 -9 0 -47 62 -45 73 1 4 -2 7 -8 7 -5 0 -10 6 -10
14 0 8 -7 16 -15 20 -8 3 -15 15 -15 26 0 12 -7 20 -17 20 -9 0 -13 3 -10 7 4
3 -4 21 -18 39 -14 18 -25 35 -25 39 0 3 -9 15 -20 27 -11 12 -20 28 -20 35 0
7 -4 13 -10 13 -5 0 -10 6 -10 13 0 7 -9 23 -20 35 -11 12 -20 23 -20 26 0 3
-23 40 -52 83 -28 43 -63 96 -77 118 -14 22 -30 43 -36 47 -5 4 -6 8 -1 8 5 0
2 8 -7 18 -8 9 -22 28 -29 42 -21 40 -92 144 -103 152 -7 5 -7 8 0 8 6 0 5 3
-1 8 -6 4 -31 39 -55 77 -24 39 -47 72 -51 73 -4 2 -8 8 -8 14 0 5 -11 24 -25
42 -14 18 -25 38 -25 44 0 7 -3 12 -7 12 -8 0 -43 56 -42 67 0 3 -3 9 -8 12
-14 9 -73 98 -73 109 0 6 -3 12 -8 14 -6 3 -22 25 -82 118 -5 8 -34 53 -65 99
-30 47 -57 93 -61 103 -3 10 -10 16 -15 13 -5 -4 -9 -1 -9 5 0 6 -13 31 -30
55 -16 24 -30 48 -30 54 0 6 -4 11 -10 11 -5 0 -10 6 -10 14 0 8 -4 16 -9 18
-5 2 -11 10 -13 18 -2 8 -6 17 -9 20 -14 12 -91 133 -93 146 -3 18 -13 27 -34
32 -9 2 -185 5 -390 6 -345 2 -374 1 -386 -15z"/>
</g>
</svg>
